<svg width="288" height="40" viewBox="0 0 288 40" fill="none" xmlns="http://www.w3.org/2000/svg">
    <path d="M14.32 0.703999C17.968 0.703999 21.424 2.112 24.048 4.736C26.608 7.296 28.08 10.752 28.08 14.464C28.08 18.112 26.608 21.568 24.048 24.192C21.424 26.752 17.968 28.224 14.32 28.224H5.68V39.936H0.56V24.704L14.256 8.192H14.32C16.24 8.192 17.904 9.024 19.056 10.368L8.56 23.104H14.32C19.056 23.104 22.96 19.2 22.96 14.464C22.96 9.664 19.056 5.824 14.32 5.824H5.68V13.376L0.56 19.52V0.703999H14.32ZM31.516 27.712H44.252L46.236 32.832H35.036L32.284 39.936H26.78L31.516 27.712ZM32.412 25.28L41.884 0.703999L56.988 39.936H51.548L41.884 14.912L37.916 25.28H32.412ZM83.658 24.192C81.162 26.624 77.962 28.032 74.506 28.16L88.33 39.936H80.394L65.93 27.584V39.936H60.81V24.704L72.394 10.752H79.05L68.81 23.104H73.93C78.666 23.104 82.57 19.2 82.57 14.464C82.57 9.664 78.666 5.824 73.93 5.824H65.93V14.464L60.81 20.608V0.703999H73.93C77.578 0.703999 81.034 2.112 83.658 4.736C86.282 7.296 87.69 10.752 87.69 14.464C87.69 18.112 86.282 21.568 83.658 24.192ZM95.641 27.712H108.377L110.361 32.832H99.161L96.409 39.936H90.905L95.641 27.712ZM96.537 25.28L106.009 0.703999L121.113 39.936H115.673L106.009 14.912L102.041 25.28H96.537ZM127.766 33.28V5.824H124.31V0.703999H136.342V5.824H132.886V33.28H127.766ZM141.014 27.008H146.518L151.382 39.936H124.31V34.816H144.022L141.014 27.008ZM158.704 33.28V5.824H155.248V0.703999H167.28V5.824H163.824V33.28H158.704ZM171.952 27.008H177.456L182.32 39.936H155.248V34.816H174.96L171.952 27.008ZM187.16 22.848V0.703999H211.16L205.528 11.776H199.832L202.84 5.824H192.28V17.728H207V22.848H187.16ZM198.808 25.216L193.88 34.816H210.84V39.936H185.56L192.984 25.216H198.808ZM218.516 33.28V5.824H215.06V0.703999H227.092V5.824H223.636V33.28H218.516ZM231.764 27.008H237.268L242.132 39.936H215.06V34.816H234.772L231.764 27.008ZM281.402 0.703999H287.226L275.962 21.248L286.138 39.936H280.314L273.018 26.624L265.722 39.936H259.898L281.402 0.703999ZM271.674 13.504L268.73 18.816L258.81 0.703999H264.698L271.674 13.504Z" fill="white"/>
</svg>