<svg width="28" height="20" viewBox="0 0 28 20" fill="none" xmlns="http://www.w3.org/2000/svg">
<path d="M27.276 7.64395C26.6706 5.51629 25.7565 3.57158 24.253 1.99996C23.2851 0.987272 22.1602 0.281414 20.8031 0.0667754C19.3077 -0.170912 18.0217 0.357762 16.8632 1.33444C15.8953 2.14834 15.1208 3.15527 14.3838 4.20109C14.2926 4.15787 14.2536 4.06424 14.1959 3.98645C13.4415 2.99393 12.6428 2.0475 11.6615 1.30419C10.0453 0.0797402 8.28407 -0.352418 6.36716 0.308784C4.84088 0.834576 3.67972 1.92217 2.77361 3.3022C0.617757 6.58804 -0.199751 10.2772 0.0405349 14.2603C0.0794638 14.8984 0.197593 15.5208 0.374787 16.1301C1.32653 19.3929 3.85557 20.4589 6.38327 19.8265C7.38871 19.5744 8.1646 18.9118 8.85861 18.1267C9.82378 17.0347 10.597 15.7887 11.3058 14.4994C12.2186 12.8356 13.0992 11.1516 13.9945 9.47486C14.0872 9.62179 14.1865 9.76585 14.2711 9.9171C15.2389 11.6414 16.192 13.3772 17.176 15.09C17.8982 16.3462 18.6781 17.5634 19.705 18.5689C20.0822 18.9377 20.4809 19.2791 20.9642 19.4822C21.4622 19.7862 22.0072 19.9057 22.5723 19.9633C24.4302 20.1506 25.935 19.5153 26.9498 17.7723C27.7002 16.4845 27.9499 15.0367 27.9915 13.553C28.0479 11.5449 27.8251 9.56849 27.276 7.64395ZM9.84257 11.591C9.09889 12.8198 8.38341 14.0687 7.51757 15.2082C7.27058 15.5337 7.00344 15.8391 6.70544 16.1114C6.17386 16.5983 5.5577 16.81 4.86906 16.6962C4.06901 16.5637 3.60455 15.9947 3.32802 15.2226C3.14411 14.7069 3.05149 14.1695 3.04477 13.6178C3.03806 12.8356 3.00853 12.0491 3.13606 11.2712C3.34547 9.60595 3.74147 7.99832 4.45024 6.49585C4.80597 5.73957 5.24493 5.03659 5.80873 4.43301C7.12829 3.02274 8.72169 2.92046 10.1835 4.16363C11.1272 4.96745 11.832 5.99743 12.522 7.04037C12.5354 7.06198 12.5327 7.09799 12.5367 7.1268C11.6387 8.61631 10.7433 10.1044 9.84257 11.591ZM25.3121 13.5256C25.2987 14.1926 25.2034 14.848 24.9577 15.4761C24.3805 16.9469 22.8314 16.9886 21.983 16.2713C21.6474 15.9875 21.3494 15.6648 21.0984 15.2931C19.1614 12.3919 17.533 9.27607 15.7208 6.28841C16.2028 5.53214 16.6793 4.7701 17.2659 4.09737C17.4767 3.85536 17.6955 3.62632 17.9358 3.42032C19.1667 2.36154 20.5561 2.314 21.8407 3.29356C22.9079 4.10601 23.5845 5.24115 24.1013 6.49729C25.0222 8.73731 25.3591 11.0969 25.3121 13.5256Z" fill="white"/>
</svg>
