<svg width="24" height="24" viewBox="0 0 24 24" fill="none" xmlns="http://www.w3.org/2000/svg">
<path d="M24 11.1998C24 11.7338 24 12.2662 24 12.8002C23.9752 13.0117 23.9489 13.2218 23.9241 13.4333C23.7432 14.9681 23.2779 16.4138 22.5353 17.7662C21.5651 19.5329 20.2332 20.9699 18.5423 22.0684C16.9755 23.0867 15.2613 23.7053 13.4056 23.9241C13.1766 23.9519 12.949 23.9752 12.72 24C12.2312 24 11.7425 24 11.2538 24C11.0291 23.9752 10.8059 23.9504 10.5812 23.9241C9.05671 23.7462 7.6168 23.2924 6.2688 22.5572C4.11112 21.3799 2.45967 19.6978 1.32028 17.5182C0.698803 16.3278 0.293234 15.0658 0.102121 13.7353C0.0656495 13.4859 0.0335542 13.2349 0 12.9855C0 12.3188 0 11.6521 0 10.9854C0.00875327 10.9518 0.0204243 10.9197 0.0248009 10.8861C0.0846149 10.4777 0.124005 10.0663 0.204243 9.66215C0.725062 7.07848 1.9549 4.88578 3.9025 3.10887C5.70275 1.46909 7.81667 0.478512 10.2238 0.109416C10.4952 0.0671084 10.768 0.0364719 11.0408 0C11.671 0 12.3027 0 12.933 0C12.9855 0.00875327 13.0365 0.0204243 13.0891 0.0277187C13.4932 0.0860738 13.9016 0.121087 14.3014 0.202784C17.651 0.898669 20.2696 2.67704 22.1341 5.54665C23.0853 7.01137 23.663 8.62343 23.8993 10.3537C23.9373 10.6367 23.9664 10.9182 24 11.1998ZM18.3279 18.3177C18.2914 18.271 18.2622 18.2316 18.2331 18.1937C16.3161 15.7617 14.402 13.3283 12.4822 10.8978C12.097 10.4106 11.7323 9.90578 11.2698 9.48271C9.13841 7.5351 5.95368 7.33961 3.6151 9.0217C3.55529 9.06401 3.50131 9.13695 3.47942 9.20698C3.02134 10.6046 2.90754 12.0328 3.15847 13.4815C3.50131 15.4626 4.39998 17.1564 5.8749 18.5278C7.61534 20.1456 9.68987 20.9451 12.062 20.9466C13.5413 20.9466 14.936 20.5804 16.2388 19.8772C17.0061 19.4629 17.6991 18.9479 18.3279 18.3177ZM5.80779 5.53644C5.85594 5.53352 5.88365 5.53352 5.90846 5.53061C6.70938 5.41827 7.51176 5.41098 8.31415 5.51748C10.1976 5.7684 11.8417 6.53577 13.2481 7.81229C13.8243 8.33457 14.3028 8.94146 14.7814 9.54836C16.3321 11.5164 17.8742 13.4902 19.4206 15.4626C19.5898 15.6786 19.759 15.8945 19.9326 16.1133C21.6629 12.9811 21.3769 8.1172 17.6787 5.07835C13.9337 2.00304 8.78536 2.60264 5.80779 5.53644Z" fill="white"/>
<path d="M8.54168 11.9657C8.55627 12.7301 7.93624 13.3647 7.16012 13.3808C6.41463 13.3954 5.7771 12.7783 5.76252 12.0269C5.74647 11.2552 6.35774 10.6191 7.13094 10.5987C7.88956 10.5768 8.52709 11.1954 8.54168 11.9657Z" fill="white"/>
</svg>
